<?xml version="1.0" encoding="UTF-8"?>
<svg version="1.1" viewBox="0 0 1600 1600" width="1280" height="1280" xmlns="http://www.w3.org/2000/svg">
<path transform="translate(161,417)" d="m0 0h547l4 2 1 7-1 126-3 2h-398l-2 1v156l2 1 366 1 2 3v131l-2 1-368 1v195l1 1 418 1 1 1 1 12v110l-1 10h-576l-1-1v-758l3-2z" fill="#4471CC"/>
<path transform="translate(1089,398)" d="m0 0h70l19 2 3 1 17 2 24 5 25 7 23 8 18 8 23 13 9 6 14 10 14 12 17 17 8 10 11 15 11 19 7 14 6 14 6 19 7 34 2 21v6l-2 3h-147l-5-4-3-18-4-14-7-16-11-16-7-8-17-13-14-8-25-9-16-4-12-2-20-2h-32l-20 2-23 5-18 6-19 10-11 8-10 9-7 10-6 12-3 9-2 14v14l2 15 5 13 7 10 4 4v2l4 2 11 7 17 9 24 8 21 5 28 7 26 6 15 4 18 4 16 4 10 3 10 2 36 9 16 3 16 5 13 3 29 10 26 11 25 13 11 7 10 8 14 12 12 12 10 13 9 15 6 12 7 21 4 17 2 13 1 12v44l-1 14-5 25-5 19-8 21-8 16-8 14-10 14-8 10-15 16-11 10-20 15-22 13-16 8-13 5-12 5-26 8-30 7-23 4-21 1-5 1h-73l-6-1-23-1-19-3-23-4-26-6-30-10-15-6-25-12-15-9-14-10-11-9-12-11-15-16-11-15-10-17-8-15-11-28-6-25-4-23-2-14v-16l2-3 148-1 3 3 1 2 1 13 4 19 6 15 5 9 8 12 5 5v2h2v2l4 2 10 9 14 9 18 8 15 5 23 5 29 3h37l32-3 20-4 24-7 19-9 14-10 7-6 8-10 8-15 3-9 2-9 1-18-1-13-4-13-4-8-8-10-10-8-18-10-14-7-30-10-24-7-21-5-16-4-19-5-36-8-20-5-15-3-11-3-25-5-29-8-25-9-18-8-19-10-18-11-22-18-14-15-12-17-9-16-6-14-5-15-7-33-1-9v-58l4-23 7-25 4-12 7-15 10-18 12-16 11-13 18-18 8-6 15-11 23-13 22-10 20-7 21-6 16-4 24-4 12-1 3-1z" fill="#8AE8F5"/>
<path transform="translate(161,417)" d="m0 0h547l4 2 1 7-1 126-3 2h-398l-2 1v156l2 1 366 1 2 3v131l-2 1-368 1v195l1 1 418 1 1 1 1 12v110l-1 10h-548v-1l183-1 12-1v-128h-57l-10-1-2-1v-199l69-2v-129l-45-1-24-1v-162l4-1 66 1-1-11v-121l-201-1-14-1z" fill="#6A9DFC"/>
<path transform="translate(1383,808)" d="m0 0h5l12 11 8 8 10 13 9 15 6 12 7 21 4 17 2 13 1 12v44l-1 14-5 25-5 19-8 21-8 16-8 14-10 14-8 10-15 16-11 10-20 15-22 13-16 8-13 5-12 5-26 8-30 7-23 4-21 1-5 1h-73l-6-1-23-1-19-3-23-4-26-6-30-10-15-6-25-12-15-9-14-10-11-9-12-11-15-16-11-15-10-17-8-15-11-28-6-25-4-23-2-14v-16l2-3 148-1 3 3 1 2 1 13 4 19 6 15 5 9 8 12 5 5v2h2v2l4 2 10 9 14 9 18 8 15 5 23 5 29 3h37l32-3 20-4 24-7 19-9 14-10 7-6 8-10 8-15 3-9 2-9 1-18-1-13-4-13-4-8-8-10-10-8-18-10-14-7-7-3v-3l29-16 26-14 23-13 28-15 23-13z" fill="#8D97EC"/>
<path transform="translate(1089,398)" d="m0 0h70l19 2 3 1 17 2 24 5 25 7 23 8 18 8 23 13 9 6 14 10 14 12 17 17 8 10 11 15 11 19 7 14 6 14 6 19 7 34 2 21v6l-2 3h-147l-5-4-3-18-4-14-7-16-11-16-7-8-17-13-14-8-25-9-16-4-12-2-20-2h-32l-20 2-23 5-18 6-19 10-11 8-10 9-3 4-5-1-39-20-20-11-16-8-29-15-20-11 2-5 11-14 11-12 14-14 8-6 15-11 23-13 22-10 20-7 21-6 16-4 24-4 12-1 3-1z" fill="#8D97EC"/>
<path transform="translate(161,417)" d="m0 0h547l4 2 1 7-1 126-3 2h-398l-2 1v156l2 1 238 1 46 1 38 2 4 2-1 5v116l1 7-26 1h-93v-1l27-1 1-4 2-2v-116l-7-5v-2l-62-1h-148l-24-1v-162l4-1 66 1-1-11v-121l-201-1-14-1z" fill="#699DFC"/>
<path transform="translate(352,419)" d="m0 0h174l12 1 8 4 1 4 2 2v116l-2 1 1 5h-171l-1-11v-121h-24z" fill="#5C81FE"/>
<path transform="translate(335,714)" d="m0 0h144l48 1 14 1 8 6v118l-3 2-1 4-27 1h-178v-1l36-1v-129l-41-1z" fill="#5C81FE"/>
<path transform="translate(319,1047)" d="m0 0h128l94 1 5 2 1 4v2l2 2v113l-6 6-16 1-48 1h-298v-1l183-1 12-1v-128h-57z" fill="#5C81FD"/>
<path transform="translate(1133,719)" d="m0 0 8 1 23 5 16 4 10 3 10 2 36 9 16 3 16 5 13 3 29 10 26 11 25 13 11 7 10 8 5 5-10 4-29 16-24 13-18 10-29 16-26 14-18 10-5 4-2 1-21-7-24-7-21-5-16-4-19-5-18-4v-1l10 1 43 10 8 1h5l3-1-3-7 3-1v-124l-3-1 1-7-5-4h-3v-2l-10-2-21-5z" fill="#A3F7DC"/>
<path transform="translate(967,945)" d="m0 0 6 1 2 4 1 13 4 19 6 15 5 9 8 12 1 2-16 8-46 25-29 16-26 14-15 9-2 1-10-16-10-18-12-29-7-28-4-23-2-14v-16l2-3z" fill="#8AE8F5"/>
<path transform="translate(666,1046)" d="m0 0h62l1 1 1 12v110l-1 10h-73l-41-1v-1l17-1 4-2-1-4v-112l2-6h-2l-2-3-49-1v-1z" fill="#70AFFB"/>
<path transform="translate(161,417)" d="m0 0h547l4 2 1 7-1 126-3 2h-386v-1l314-1-2-5v-117l1-6-2-1v-2l-20-1-439-1-14-1z" fill="#6FAFFC"/>
<path transform="translate(547,713)" d="m0 0 48 1 38 2 4 2-1 5v116l1 7-26 1h-93v-1l27-1 1-4 2-2v-116l-7-5v-2h-14l-28-1v-1z" fill="#699DFC"/>
<path transform="translate(1264,751)" d="m0 0 10 1 36 12 26 11 25 13 11 7 10 8 5 5-10 4-29 16-24 13-18 10-29 16-10 3v-7-2l-2-3v-94l2-3h-2l-1-5v-4z" fill="#AAF7D3"/>
<path transform="translate(549,713)" d="m0 0h128l2 3v131l-2 1-368 1v196h-2v-198l330-1-2-7v-116l2-5-4-1-38-2-46-1z" fill="#70B0FC"/>
<path transform="translate(161,417)" d="m0 0h547l4 2 1 7-1 126-3 2h-386v-1l301-1 85-1 1-1 1-126-5-2-3-2-528-1-14-1z" fill="#D3D6F6"/>
<path transform="translate(307,553)" d="m0 0 4 1-2 1v156l2 1 236 1v1l-48 1h-168l-24-1z" fill="#B8BFF2"/>
<path transform="translate(307,847)" d="m0 0h225v1l-223 1v196h-2z" fill="#C1C7F4"/>
<path transform="translate(549,713)" d="m0 0h128l2 3v131l-2 1h-145v-1l144-1 1-1v-127l-2-3-126-1z" fill="#8AE7F5"/>
<path transform="translate(711,425)" d="m0 0 2 1-1 126-1 1h-87v-1l85-1 1-1z" fill="#90E9F6"/>
<path transform="translate(666,1046)" d="m0 0h62l1 1 1 12v110l-2-1-1-119-3-1-58-1z" fill="#8AE8F6"/>
<path transform="translate(726,1169)" d="m0 0h1v8l-8 1-6-1 4-3z" fill="#5C81FE"/>
<path transform="translate(728,1168)" d="m0 0h1v11h-22v-1l10-1h10v-8z" fill="#8D97EC"/>
<path transform="translate(703,418)" d="m0 0h7l2 1v6l-9-5z" fill="#8C9BEC"/>
</svg>
